<svg version="1.1" viewBox="0 0 96 96" xmlns="http://www.w3.org/2000/svg" xmlns:xlink="http://www.w3.org/1999/xlink" id="Icons_WirelessRouter" overflow="hidden"><g><path d=" M 39.5 42.4 L 42.3 39.6 C 40.9 38.1 40 36.1 40 33.9 C 40 31.7 40.9 29.7 42.3 28.2 L 39.5 25.4 C 37.3 27.6 36 30.6 36 33.9 C 36 37.2 37.3 40.2 39.5 42.4 Z" stroke="none" stroke-width="1" stroke-dasharray="" stroke-dashoffset="1" fill="#ECAE31" fill-opacity="1"/><path d=" M 33.9 48 L 36.7 45.2 C 33.8 42.3 32 38.3 32 33.9 C 32 29.5 33.8 25.5 36.7 22.6 L 33.9 19.8 C 30.2 23.4 28 28.4 28 33.9 C 28 39.4 30.2 44.4 33.9 48 Z" stroke="none" stroke-width="1" stroke-dasharray="" stroke-dashoffset="1" fill="#ECAE31" fill-opacity="1"/><path d=" M 31 50.9 C 26.7 46.6 24 40.6 24 33.9 C 24 27.2 26.7 21.3 31 16.9 L 28.2 14.1 C 23.1 19.2 20 26.2 20 33.9 C 20 41.6 23.1 48.6 28.2 53.7 L 31 50.9 Z" stroke="none" stroke-width="1" stroke-dasharray="" stroke-dashoffset="1" fill="#ECAE31" fill-opacity="1"/><path d=" M 56.5 42.4 C 58.7 40.2 60 37.2 60 33.9 C 60 30.6 58.7 27.6 56.5 25.4 L 53.7 28.2 C 55.1 29.6 56 31.6 56 33.9 C 56 36.2 55.1 38.1 53.7 39.6 L 56.5 42.4 Z" stroke="none" stroke-width="1" stroke-dasharray="" stroke-dashoffset="1" fill="#ECAE31" fill-opacity="1"/><path d=" M 59.3 45.2 L 62.1 48 C 65.8 44.4 68 39.4 68 33.9 C 68 28.4 65.8 23.4 62.1 19.8 L 59.3 22.6 C 62.2 25.5 64 29.5 64 33.9 C 64 38.3 62.2 42.3 59.3 45.2 Z" stroke="none" stroke-width="1" stroke-dasharray="" stroke-dashoffset="1" fill="#ECAE31" fill-opacity="1"/><path d=" M 65 50.9 L 67.8 53.7 C 72.9 48.6 76 41.6 76 33.9 C 76 26.2 72.9 19.2 67.8 14.1 L 65 16.9 C 69.3 21.2 72 27.2 72 33.9 C 72 40.6 69.3 46.5 65 50.9 Z" stroke="none" stroke-width="1" stroke-dasharray="" stroke-dashoffset="1" fill="#ECAE31" fill-opacity="1"/><path d=" M 74 73.9 C 72.9 73.9 72 73 72 71.9 C 72 70.8 72.9 69.9 74 69.9 C 75.1 69.9 76 70.8 76 71.9 C 76 73 75.1 73.9 74 73.9 Z M 64 73.9 C 62.9 73.9 62 73 62 71.9 C 62 70.8 62.9 69.9 64 69.9 C 65.1 69.9 66 70.8 66 71.9 C 66 73 65.1 73.9 64 73.9 Z M 54 73.9 C 52.9 73.9 52 73 52 71.9 C 52 70.8 52.9 69.9 54 69.9 C 55.1 69.9 56 70.8 56 71.9 C 56 73 55.1 73.9 54 73.9 Z M 44 73.9 C 42.9 73.9 42 73 42 71.9 C 42 70.8 42.9 69.9 44 69.9 C 45.1 69.9 46 70.8 46 71.9 C 46 73 45.1 73.9 44 73.9 Z M 24 75.9 C 21.8 75.9 20 74.1 20 71.9 C 20 69.7 21.8 67.9 24 67.9 C 26.2 67.9 28 69.7 28 71.9 C 28 74.1 26.2 75.9 24 75.9 Z M 78 61.9 L 50 61.9 L 50 37.3 C 51.2 36.6 52 35.3 52 33.9 C 52 31.7 50.2 29.9 48 29.9 C 45.8 29.9 44 31.7 44 33.9 C 44 35.4 44.8 36.7 46 37.3 L 46 61.9 L 18 61.9 C 15.8 61.9 14 63.7 14 65.9 L 14 77.9 C 14 80.1 15.8 81.9 18 81.9 L 78 81.9 C 80.2 81.9 82 80.1 82 77.9 L 82 65.9 C 82 63.7 80.2 61.9 78 61.9 Z" stroke="none" stroke-width="1" stroke-dasharray="" stroke-dashoffset="1" fill="#ECAE31" fill-opacity="1"/></g></svg>